# xmcd
#
# Track frame offsets:
#	150
#	11170
#	29357
#	42571
#	56283
#	70454
#	82442
#	103378
#	117643
#	127519
#	144544
#	160934
#
# Disc length: 2363 seconds
#
# Revision: 0
# Processed by: cddbd v1.5.2PL0 Copyright (c) Steve Scherf et al.
# Submitted via: dBpowerAMP V4.0
#
DISCID=b009390c
DTITLE=Pussycat - First of all
DYEAR=1900
DGENRE=Country
TTITLE0=Georgy
TTITLE1=Pasadena
TTITLE2=Boulevard de Madelaine
TTITLE3=What do they do to the people
TTITLE4=Mexicali lane
TTITLE5=Take me
TTITLE6=Mississippi
TTITLE7=Delaney
TTITLE8=Do it
TTITLE9=Help me living on
TTITLE10=Just a woman
TTITLE11=Badboy
EXTD=
EXTT0=
EXTT1=
EXTT2=
EXTT3=
EXTT4=
EXTT5=
EXTT6=
EXTT7=
EXTT8=
EXTT9=
EXTT10=
EXTT11=
PLAYORDER=
